<svg width="24" height="24" viewBox="0 0 24 24" fill="none" xmlns="http://www.w3.org/2000/svg">
<path fill-rule="evenodd" clip-rule="evenodd" d="M0 6.27368C0 5.01796 1.01796 4 2.27368 4H21.7263C22.982 4 24 5.01796 24 6.27368V18.7263C24 19.982 22.982 21 21.7263 21H2.27368C1.01796 21 0 19.982 0 18.7263V6.27368Z" fill="#224DBA"/>
<path fill-rule="evenodd" clip-rule="evenodd" d="M8.17711 15.3378H6.77071L5.71609 11.2578C5.66603 11.0702 5.55974 10.9042 5.4034 10.826C5.01323 10.6295 4.58329 10.4731 4.11426 10.3942V10.2372H6.37986C6.69254 10.2372 6.92706 10.4731 6.96614 10.7472L7.51334 13.6902L8.91906 10.2372H10.2864L8.17711 15.3378ZM11.0685 15.3378H9.74023L10.8339 10.2372H12.1622L11.0685 15.3378ZM13.8802 11.6505C13.9193 11.3758 14.1538 11.2187 14.4274 11.2187C14.8573 11.1793 15.3257 11.2582 15.7165 11.454L15.9511 10.3558C15.5602 10.1987 15.1303 10.1198 14.7401 10.1198C13.4509 10.1198 12.5129 10.8264 12.5129 11.8069C12.5129 12.5529 13.1773 12.9446 13.6464 13.1805C14.1538 13.4158 14.3492 13.5729 14.3101 13.8082C14.3101 14.1611 13.9193 14.3182 13.5291 14.3182C13.0601 14.3182 12.5911 14.2005 12.1618 14.004L11.9273 15.1029C12.3963 15.2987 12.9037 15.3776 13.3728 15.3776C14.8183 15.4164 15.7165 14.7105 15.7165 13.6511C15.7165 12.3169 13.8802 12.2387 13.8802 11.6505ZM20.3653 15.3378L19.3106 10.2372H18.1778C17.9433 10.2372 17.7088 10.3942 17.6306 10.6295L15.6777 15.3378H17.045L17.318 14.5926H18.998L19.1543 15.3378H20.3653ZM18.3735 11.6108L18.7636 13.5331H17.6699L18.3735 11.6108Z" fill="white"/>
</svg>
